Coordinates
version=1
nRows=18
nColumns=22
inDegrees=yes

Units are S.I. units (second, meters, Newtons, ...)
If the header above contains a line with 'inDegrees', this indicates whether rotational values are in degrees (yes) or radians (no).

endheader
time	pelvis_tilt	pelvis_list	pelvis_rotation	pelvis_tx	pelvis_ty	pelvis_tz	hip_flexion_r	hip_adduction_r	hip_rotation_r	knee_angle_r	ankle_angle_r	subtalar_angle_r	hip_flexion_l	hip_adduction_l	hip_rotation_l	knee_angle_l	ankle_angle_l	subtalar_angle_l	lumbar_extension	lumbar_bending	lumbar_rotation
      0.01000000	     -2.18915878	      2.34663797	    178.11482878	      0.30326232	      0.93304125	      0.99231079	     -2.76797125	     -1.06168411	     -0.10731422	     -6.16696909	      3.54963338	      2.63493044	     -3.46562292	     -8.07925254	    -14.00104285	     -7.64985329	      7.19662450	      7.27109969	     -6.34777984	     -1.42056374	      2.11273013
      0.02000000	     -2.19437520	      2.35763089	    178.10247888	      0.30301862	      0.93305236	      0.99240820	     -2.80671559	     -1.05791726	     -0.02399952	     -6.13437927	      3.53247865	      2.59229510	     -3.56170489	     -8.06450642	    -14.00217812	     -7.51610055	      7.22550750	      7.29234794	     -6.32302343	     -1.40120850	      2.10518762
      0.03000000	     -2.27846557	      2.36170553	    178.09363808	      0.30272988	      0.93319001	      0.99252127	     -2.93692393	     -1.06471599	      0.04691037	     -6.09430042	      3.49546830	      2.53826260	     -3.75789452	     -8.03479692	    -14.04119579	     -7.35541540	      7.15975299	      7.30812342	     -6.38996348	     -1.39328700	      2.08004486
      0.04000000	     -2.30351226	      2.37566896	    178.10029151	      0.30243010	      0.93323535	      0.99267313	     -3.00305141	     -1.06040592	      0.09928453	     -6.06245428	      3.48644951	      2.52625453	     -3.88498005	     -8.01765189	    -14.03266137	     -7.19791231	      7.14302896	      7.30261689	     -6.38627108	     -1.36736711	      2.05390688
      0.05000000	     -2.39558743	      2.37455529	    178.11031960	      0.30212180	      0.93338165	      0.99282777	     -3.14474230	     -1.07445308	      0.15637241	     -6.02466049	      3.45396153	      2.50972122	     -4.07944678	     -7.98200648	    -14.04668019	     -7.04891379	      7.08687654	      7.28658902	     -6.46408315	     -1.36339949	      2.00516303
      0.06000000	     -2.42199587	      2.38535257	    178.13279577	      0.30183493	      0.93342932	      0.99299287	     -3.21177013	     -1.07225810	      0.20774363	     -5.99713539	      3.45403434	      2.50641477	     -4.18219128	     -7.96673064	    -14.02531756	     -6.93092471	      7.07328945	      7.26958042	     -6.46773288	     -1.34253908	      1.96015567
      0.07000000	     -2.48043483	      2.38678829	    178.16516115	      0.30156245	      0.93352538	      0.99317683	     -3.31668899	     -1.08169993	      0.25042893	     -5.96142583	      3.44133775	      2.50402762	     -4.30379700	     -7.94243675	    -14.00579672	     -6.83535665	      7.04051713	      7.23627929	     -6.51508924	     -1.33084251	      1.89742525
      0.08000000	     -2.52303588	      2.39257982	    178.20549990	      0.30133068	      0.93359515	      0.99335829	     -3.39410308	     -1.08444919	      0.28044990	     -5.94365036	      3.43713437	      2.50781635	     -4.37896326	     -7.93117751	    -13.98460655	     -6.78872121	      7.03646698	      7.19956809	     -6.55173313	     -1.31507581	      1.83188702
      0.09000000	     -2.55124801	      2.39779852	    178.25229722	      0.30113328	      0.93364428	      0.99354304	     -3.45250498	     -1.08657300	      0.30590339	     -5.92934945	      3.43212535	      2.51352898	     -4.41545893	     -7.92509254	    -13.95852956	     -6.77864518	      7.03700108	      7.16450662	     -6.57814998	     -1.29963256	      1.76634365
      0.10000000	     -2.57831116	      2.40681974	    178.30991485	      0.30096071	      0.93369010	      0.99372925	     -3.50960808	     -1.08285836	      0.32120524	     -5.91484193	      3.42842717	      2.52173343	     -4.43188621	     -7.92856916	    -13.91977342	     -6.79761199	      7.05137556	      7.12421911	     -6.60880049	     -1.28204890	      1.69492117
      0.11000000	     -2.60067335	      2.41940326	    178.37841482	      0.30083015	      0.93372474	      0.99393214	     -3.55957242	     -1.07485918	      0.32763660	     -5.90134824	      3.42316540	      2.53164494	     -4.42323905	     -7.94078025	    -13.86961767	     -6.84465244	      7.07565752	      7.08266776	     -6.64349891	     -1.25925814	      1.61762390
      0.12000000	     -2.61749132	      2.43765018	    178.46055446	      0.30074711	      0.93374745	      0.99415160	     -3.60041693	     -1.05953095	      0.32436949	     -5.89055398	      3.41777791	      2.54329926	     -4.38853216	     -7.96457165	    -13.80235539	     -6.91968377	      7.11128287	      7.04227446	     -6.68267095	     -1.22971951	      1.53177969
      0.13000000	     -2.62757479	      2.46306525	    178.55773077	      0.30072229	      0.93375367	      0.99439151	     -3.62741802	     -1.03528203	      0.30900168	     -5.88830242	      3.41066370	      2.55654501	     -4.32710123	     -8.00111823	    -13.71615799	     -7.01809902	      7.15691037	      7.00534932	     -6.72551446	     -1.19332003	      1.43961231
      0.14000000	     -2.62938288	      2.49679561	    178.67312160	      0.30074247	      0.93374576	      0.99464131	     -3.63963871	     -0.99879065	      0.27794561	     -5.89675826	      3.40199444	      2.57198831	     -4.23756037	     -8.05271307	    -13.60682855	     -7.14101712	      7.21446169	      6.97120749	     -6.76817518	     -1.15171499	      1.33843345
      0.15000000	     -2.62362049	      2.53501192	    178.79921071	      0.30080554	      0.93372057	      0.99491345	     -3.63690521	     -0.95719017	      0.23802540	     -5.91418396	      3.39599891	      2.58835281	     -4.12640579	     -8.11201707	    -13.48438941	     -7.28004610	      7.27811287	      6.94110743	     -6.81213765	     -1.10469702	      1.23489222
      0.16000000	     -2.61610412	      2.57239260	    178.92536328	      0.30087560	      0.93369391	      0.99519508	     -3.62664376	     -0.91709602	      0.19601059	     -5.94164735	      3.39150226	      2.60475523	     -4.01024037	     -8.17017195	    -13.36117452	     -7.42353939	      7.34440823	      6.91178328	     -6.85742036	     -1.06028211	      1.14024577
      0.17000000	     -2.61424191	      2.60353901	    179.03998285	      0.30092244	      0.93367624	      0.99548188	     -3.62027209	     -0.88608975	      0.16129083	     -5.97303353	      3.39011073	      2.62122460	     -3.90667270	     -8.21758211	    -13.25073075	     -7.56158638	      7.40913658	      6.87827677	     -6.90803507	     -1.02384501	      1.06312696
      0.18000000	     -2.62486417	      2.62499135	    179.13535369	      0.30091737	      0.93368309	      0.99576608	     -3.62831571	     -0.86847692	      0.14163591	     -6.00445339	      3.39166979	      2.63804421	     -3.82987298	     -8.24882478	    -13.16184732	     -7.68937782	      7.46882299	      6.83736168	     -6.96727931	     -1.00001240	      1.00955383
